<?xml version="1.0" encoding="UTF-8"?>
<svg id="Layer_1" xmlns="http://www.w3.org/2000/svg" version="1.1" viewBox="0 0 75 75">
  <!-- Generator: Adobe Illustrator 29.7.1, SVG Export Plug-In . SVG Version: 2.1.1 Build 8)  -->
  <defs>
    <style>
      .st0 {
        fill: #fff;
      }
    </style>
  </defs>
  <g>
    <path class="st0" d="M-146.5,43.02l.25,2.24-1.83.41c-2.48-9.71,4.58-19.27,14.39-20.43,11.36-1.34,21.04,9.26,18.23,20.43l-1.83-.41.11-2.24h-5.44c-.21.9-.44,5.41-.98,5.85-.39.31-1.34-.13-1.81-.22l.67-5.63h-5.97v3.98h-2.12v-3.98h-5.84l.13,3.31-1.91.28-.47-3.59h-5.57ZM-132.83,27.5c-2.29.76-3.54,3.25-4.37,5.36.11.48,3.76,1.17,4.37,1.01v-6.37ZM-130.71,27.5v6.5l4.39-1.01c-.82-2.18-2.04-4.67-4.39-5.49ZM-122.48,30.55l-3.71-2.25c-.13.15,1.68,3.43,1.85,3.52.19.1.2.03.34-.07.47-.33.95-1.02,1.52-1.2ZM-137.34,28.43c-.27-.21-3.12,1.54-3.45,1.92-.1.12-.17.15-.13.33l1.65,1.2,1.93-3.45ZM-146.37,40.9h5.24c.08,0,.34-.33.32-.47l.9-6.21c-.06-.48-2.2-1.79-2.68-2.17-2.25,2.35-3.69,5.59-3.78,8.86ZM-117.18,40.9c-.09-3.3-1.57-6.49-3.8-8.88-.46.42-2.61,1.75-2.68,2.21l1.04,6.67h5.44ZM-132.83,40.9v-4.58c0-.12-.34-.28-.47-.32-1.32-.44-3.29-.51-4.7-.8-.31,1.89-.76,3.77-.67,5.7h5.84ZM-130.71,36.12v4.78h5.84c.08-1.93-.38-3.81-.66-5.7l-5.17.93Z"/>
    <path class="st0" d="M-129.51,53.64c.53-.16,1.04-.18,1.58-.34,2.15-.63,5.86-2.12,7.84-3.18,2.32-1.23,4.81-3.59,7.16-.53,3.12,4.07-3.32,7.06-6.14,8.58-3.15,1.69-7.91,4.17-11.34,4.84-4.32.85-8.83,1.15-13.15,2.11l-1.74,1.58,1.85,1.59-4.73,4.57c-.18.03-1.44-1.18-1.36-1.49.11-.41,3-2.52,2.84-2.88l-12.01-12.01c-.1-.09-.16-.05-.26,0-.46.24-2.65,2.86-2.85,2.86l-1.39-1.52,4.38-4.39c.36-.18,1.07,1.02,1.32,1.32l.28.03c3.04-2.34,5.07-6.3,9.04-7.16,3.35-.72,4.64-.01,7.67.78,2.8.73,8.19-.76,10.21,1.2,1.12,1.09,1.03,2.6.81,4.03ZM-139.86,56.03v-1.92c.12-.19.26-.18.46-.21,1.88-.22,5.04.38,6.71-.06,1.51-.4,1.88-2.93-.2-3.13-2.31-.21-5.02.25-7.3,0-1.11-.12-2.48-1.04-3.86-1.18-3.36-.34-4.88.07-7.21,2.31-1.47,1.41-2.82,2.94-4.38,4.24l8.95,9.09,2.29-2.09c4.52-.98,9.37-1.23,13.86-2.19,3.27-.7,9.75-4.05,12.75-5.83.77-.46,2.59-1.56,3.13-2.17,1-1.12.08-2.96-1.51-2.7-.37.06-2.33,1.43-2.9,1.74-4.72,2.53-9.11,3.92-14.48,4.1-2.1.07-4.21-.06-6.31,0Z"/>
  </g>
  <g>
    <path class="st0" d="M-151.81-17.99c1.01-.69,2.2-1.3,3.46-.9l14.71,5.12c4.7,1.98,3.59,8.06-1.39,7.89l-9.01-2.82c-.61-.46-.36-1.38.46-1.32l8.72,2.75c3.44.08,3.73-4.2.62-5.23l-14.66-5.03c-1.04-.2-2.07.73-2.89,1.26V-5.52c.57.15,1.15.29,1.72.48,5.03,1.68,9.93,3.78,14.97,5.44.58.08,1.02-.39,1.44-.72,5.56-4.39,10.85-9.18,16.3-13.7,1.5-2.42-1.32-4.91-3.42-2.85l-8.44,7.25c.02-.55,0-1.1-.19-1.62l8.09-7.1c3.78-2.86,8.17,2.33,4.15,6.02-5.04,4.62-10.88,8.7-15.98,13.3-.73.64-1.51.86-2.47.67-4.94-1.66-9.75-3.7-14.69-5.36-.49-.16-.98-.31-1.48-.43v1.98c0,.4-.7,1.07-1.12,1.11-1.66-.14-3.65.2-5.26,0-.56-.07-.81-.74-.43-1.15.04-.04.34-.22.36-.22h5.01v-17.27s.13-.08-.04-.18h-4.98c-.27,0-.56-.47-.54-.75.04-.69.82-.67,1.33-.7.94-.04,3.92-.14,4.67.09.41.13.99.73.99,1.17v2.06Z"/>
    <path class="st0" d="M-132.3-42.9c.89,0,1.56.62,2.13,1.22.49.51,1.05,1.5,1.84,1.49,1.31-.03,2.82-1.04,4.07-.11.68.51.84,1.36.94,2.16.11.87-.11,1.89.76,2.42,1.19.73,3.29.94,3.29,2.77,0,1.41-1.54,2.55-1.59,3.61-.04.82,1.4,2.35,1.51,3.38.23,2.16-2.09,2.28-3.37,3.12-.49.32-.51.67-.59,1.21-.29,2.04-.07,3.97-2.92,3.62-1.13-.14-2.18-.86-3.15.04s-1.73,2.61-3.46,2.17c-1.34-.34-2.22-2.43-3.15-2.62-.71-.14-2.17.49-3.01.49-1.71.02-2.08-1.3-2.27-2.71-.1-.76.11-1.68-.63-2.19-1.15-.79-3.42-.99-3.42-2.86,0-1.22,1.53-2.68,1.53-3.61,0-1.46-2.32-2.92-1.18-4.7.73-1.14,2.75-1.26,3.37-2.04.43-.54.33-2.18.52-2.94.35-1.42,1.26-1.8,2.65-1.66,1.07.1,2.21.85,3.14.02s1.59-2.3,3-2.3ZM-143.78-25.3c.39.43,1.74.82,2.33,1.17.98.57,1.28,1.19,1.46,2.29.07.47.07,2.32.56,2.47.98.3,2.69-.66,3.98-.3s2.38,2.59,3.15,2.59c.65,0,1.56-1.44,2.05-1.88,1.59-1.42,2.65-.47,4.37-.33.53.04.81.06,1-.5.41-1.18-.02-2.55.87-3.67.62-.79,3.15-1.47,3.32-2.02s-1.1-2.26-1.32-2.94c-.63-1.92.81-2.7,1.3-4.22.15-.46-.03-.62-.4-.86-.76-.5-1.77-.65-2.54-1.29-1.25-1.04-.79-2.49-1.15-3.82-.17-.64-.37-.68-1-.64-1.12.08-2.21.69-3.38.33-1.11-.34-2.39-2.58-3.12-2.58-.68,0-2.04,2.18-3.12,2.51-1.21.37-3.44-.61-4.07-.27-.43.23-.47,2.53-.64,3.13-.21.75-.65,1.26-1.32,1.64-.5.29-2.38.89-2.49,1.41-.14.68,1.51,2.54,1.51,3.73,0,1.29-1.63,3-1.52,3.74.01.1.1.23.17.31Z"/>
    <path class="st0" d="M-133.22-38.66c6.9-.58,12.18,6.08,9.75,12.64-2.79,7.54-13.19,8.34-17.08,1.28-3.24-5.88.64-13.36,7.33-13.92ZM-133-37.29c-5.74.47-9.09,6.77-6.34,11.85,2.78,5.15,10.09,5.6,13.53.88,4.06-5.56-.34-13.3-7.18-12.74Z"/>
    <path class="st0" d="M-133.52-25.66c-.36.33-.75.23-1.09-.05-.61-.5-2.07-1.95-2.56-2.56-.1-.12-.32-.39-.35-.52-.14-.61.51-1,1.04-.75l2.45,2.38,5.77-5.77c.65-.58,1.55.17,1.05.9l-6.3,6.36Z"/>
  </g>
  <g id="Outline">
    <g id="Outline-2">
      <path class="st0" d="M15.55,34.23l.9,1.07c.15.17.22.4.2.62l-.1,1.39c-.12,1.45,1.4,2.56,2.75,1.99l1.29-.52c.21-.09.44-.09.65,0l1.29.52c1.31.58,2.89-.57,2.75-1.99l-.1-1.39c-.02-.23.06-.45.2-.62l.9-1.07c.95-1.1.37-2.9-1.05-3.23l-1.35-.34c-.22-.05-.41-.19-.53-.38l-.74-1.18c-.75-1.25-2.64-1.25-3.39,0l-.74,1.18c-.12.19-.31.33-.53.38l-1.35.34c-1.42.33-2,2.13-1.05,3.23h0ZM16.87,32.09l1.35-.34c.5-.12.94-.44,1.21-.88l.74-1.18c.31-.54,1.17-.54,1.48,0l.74,1.18c.27.44.71.76,1.21.88l1.35.34c.61.13.87.94.46,1.41l-.9,1.07c-.33.4-.5.91-.46,1.43l.1,1.39c.06.63-.62,1.12-1.2.87l-1.29-.52c-.48-.2-1.02-.2-1.5,0l-1.29.52c-.57.25-1.26-.25-1.2-.87l.1-1.39c.04-.52-.13-1.03-.46-1.43l-.9-1.07c-.42-.46-.15-1.28.46-1.41h0Z"/>
      <path class="st0" d="M54.59,29.1l-.74,1.18c-.12.19-.31.33-.53.38l-1.35.34c-1.42.33-2,2.13-1.05,3.23l.9,1.07c.15.17.22.4.2.62l-.1,1.39c-.12,1.45,1.4,2.56,2.75,1.99l1.29-.52c.21-.09.44-.09.65,0l1.29.52c1.31.58,2.89-.57,2.75-1.99l-.1-1.39c-.02-.23.06-.45.2-.62l.9-1.07c.96-1.07.35-2.92-1.05-3.23l-1.35-.34c-.22-.05-.41-.19-.53-.38l-.74-1.18c-.75-1.25-2.64-1.25-3.39,0h0ZM55.54,29.69c.32-.54,1.16-.54,1.48,0l.74,1.18c.27.44.71.76,1.21.88l1.35.34c.61.13.88.94.46,1.41l-.9,1.07c-.33.4-.5.91-.46,1.43l.1,1.39c.06.63-.62,1.12-1.2.87l-1.29-.52c-.48-.2-1.02-.2-1.5,0l-1.29.52c-.45.18-.95-.04-1.13-.48-.05-.12-.07-.26-.06-.39l.1-1.39c.04-.52-.13-1.03-.46-1.43l-.9-1.07c-.42-.47-.16-1.27.46-1.41l1.35-.34c.5-.12.94-.44,1.21-.88l.74-1.18Z"/>
      <path class="st0" d="M58.1,25.39l2.99-2.99c.77-.71.77-2.11,0-2.82-.71-.77-2.11-.77-2.82,0l-2.99,2.99c-.77.71-.77,2.11,0,2.82.71.77,2.11.77,2.82,0h0ZM56.07,23.38s3-3,3.02-3.02c.3-.33.93-.32,1.22.02.32.29.32.93,0,1.21l-3,3c-.29.33-.94.33-1.23,0-.32-.29-.32-.92,0-1.21h0Z"/>
      <path class="st0" d="M58.1,42.19c-.71-.77-2.11-.77-2.82,0-.77.71-.77,2.11,0,2.82l2.99,2.99c.71.77,2.11.77,2.82,0,.77-.71.77-2.11,0-2.82l-2.99-2.99ZM60.31,47.2c-.29.34-.94.34-1.23,0l-3-3c-.33-.29-.33-.92,0-1.21.29-.34.94-.34,1.23,0l3,3c.33.29.33.92,0,1.21h0Z"/>
      <path class="st0" d="M19.09,25.39c.71.77,2.11.77,2.82,0,.77-.71.77-2.11,0-2.82l-2.99-2.99c-.71-.77-2.11-.77-2.82,0-.77.71-.77,2.11,0,2.82l2.99,2.99ZM16.88,20.38c.29-.33.93-.34,1.22-.02.02.02,3,3,3.02,3.02.32.29.32.92,0,1.21-.29.34-.94.34-1.23,0l-3-3c-.33-.29-.33-.92,0-1.21Z"/>
      <path class="st0" d="M18.92,48l2.99-2.99c.77-.71.77-2.11,0-2.82-.71-.77-2.11-.77-2.82,0l-2.99,2.99c-.77.71-.77,2.11,0,2.82.71.77,2.11.77,2.82,0ZM16.88,47.2c-.32-.29-.32-.93,0-1.21l3-3c.29-.33.94-.33,1.23,0,.32.29.32.93,0,1.21l-3,3c-.3.33-.94.33-1.23,0h0Z"/>
      <path class="st0" d="M48.89,30.15c1.22-1.45,1.03-3.62-.42-4.84-.4-.34-.87-.58-1.38-.7l-2.7-.67c-.58-.14-1.08-.51-1.4-1.02l-1.48-2.36c-1.01-1.61-3.13-2.1-4.74-1.09-.44.28-.82.65-1.09,1.09l-1.48,2.36c-.32.51-.82.87-1.4,1.02l-2.7.67c-1.84.46-2.96,2.32-2.5,4.17.13.51.37.98.7,1.38l1.79,2.13c.39.46.58,1.05.53,1.64l-.19,2.78c-.17,1.76,1.22,3.43,2.96,3.65.01,1.65.02,4.03.02,4.09l-.45-1.01c-.54-1.28-1.99-1.6-3.09-1.16-1.12.44-1.62,1.51-1.22,2.6.53,1.53,1.31,2.86,2.07,4.16,1.01,1.73,1.96,3.37,2.18,5.23-.57.3-.94.89-.94,1.54l-.02,7.26c0,1.61,1.3,2.92,2.91,2.93,0,0,0,0,0,0h10.01c1.61,0,2.91-1.3,2.92-2.91l.02-7.27c0-.6-.31-1.16-.82-1.47.09-1.06.3-1.71.66-2.8.18-.56.41-1.26.68-2.17.43-1.4.26-3.92.02-7.53-.07-1.13-.96-2.03-2.09-2.13-.37-.03-.74.02-1.09.15,1.06-.68,1.66-1.88,1.58-3.14l-.19-2.78c-.04-.6.15-1.19.53-1.64l1.79-2.13ZM46.67,63.06c0,.99-.8,1.78-1.79,1.79h-10.01c-.99,0-1.79-.8-1.79-1.79,0,0,0,0,0,0v-4.53h13.6v4.54ZM46.69,57.39h-13.59v-1.59c0-.34.28-.61.62-.61h12.37c.34,0,.61.27.61.61v1.6ZM46.18,40.82c.58.04,1.04.52,1.06,1.11.18,4.56.24,6.39.02,7.1,0,0,0,0,0,.01-.26.9-.48,1.58-.67,2.14-.35,1.08-.59,1.79-.69,2.88h-11.87c-.25-2.05-1.26-3.78-2.32-5.6-.73-1.25-1.48-2.54-1.98-3.97-.27-.75.3-1.07.57-1.17.59-.23,1.36-.11,1.64.56,0,0,0,0,0,0l.64,1.46c.21.49.72.76,1.2.66.47-.1.77-.52.77-1.07-.01-2.44-.04-8.36-.1-11.71.04-.65.63-.95,1.21-.98.59.02,1.15.3,1.19.96v9.31c0,.31.25.56.56.56s.56-.25.56-.56v-4.45c0-.61.6-1.01,1.2-.95.58.05,1.03.5,1.03,1.01-.02,1.05-.03,3.32-.03,4.39,0,.31.25.56.56.56s.56-.25.56-.56v-2.57c0-.65.73-1.06,1.35-1,.6.05,1.08.52,1.08,1.05,0,.53-.03,2-.03,2.51,0,.31.25.56.56.56s.56-.25.56-.56v-.71c0-.63.71-1.04,1.33-.97h0ZM46.23,31.56c-.57.68-.86,1.56-.8,2.45l.19,2.78c.07.85-.35,1.67-1.08,2.11-.39-.62-1.06-1.02-1.79-1.08-.49-.04-.99.06-1.42.29-.01-1.09-.91-2.03-2.07-2.12-.45-.04-.9.04-1.3.25v-3.03c.01-1.2-1.15-2.14-2.34-2.09-1.17,0-2.36.93-2.32,2.13.03,1.49.05,3.8.06,5.97-1.09-.22-1.93-1.29-1.83-2.42l.19-2.78c.06-.89-.22-1.77-.8-2.45l-1.79-2.14c-.82-.98-.69-2.43.29-3.25.27-.23.58-.39.92-.47l2.7-.67c.86-.21,1.61-.76,2.08-1.51l1.48-2.36c.68-1.08,2.1-1.41,3.18-.73.3.19.55.44.73.73l1.48,2.36c.47.76,1.22,1.3,2.08,1.51l2.7.67c1.24.31,1.99,1.56,1.68,2.8-.08.34-.25.66-.47.92l-1.79,2.13Z"/>
    </g>
  </g>
</svg>