<?xml version="1.0" encoding="UTF-8"?>
<svg id="Layer_1" xmlns="http://www.w3.org/2000/svg" version="1.1" viewBox="0 0 75 75">
  <!-- Generator: Adobe Illustrator 29.7.1, SVG Export Plug-In . SVG Version: 2.1.1 Build 8)  -->
  <g>
    <path d="M-40.81-12.94c-.81.68-1.84.1-1.55-1.02s3.2-4.55,4.2-5.32c4.61-3.55,9.12,1.44,13.74-4.25.85-1.04,2.7-4.65,1.88-5.8-1.08-1.51-7.7-1.31-10.03-4.04-1.65-1.93-2.32-4.41-4.9-5.65-1.92-.92-3.44-.6-5.21-.99-1.29-.28-1.27-.99-3.33-.76s-9.19,2.88-9.23,5.45,4.35,8.31,6.41,9.94c1.06.83,3.27,1.72,3.53-.2.45-3.34-1.08-6.88-.58-10.1.12-.75.76-2.52,1.7-2.44l.55.3c.58.73-.3,1.7-.41,2.52-.42,2.96,1.64,8.71.15,11.12-.43.7-1.38,1.38-2.19,1.54-3.54.67-7.61-5.18-9.26-7.81-1.29,1.68-2.44,3.48-3.74,5.15-4.07,5.19-6.62,8.15-13.63,8.91-.64.07-3.01.3-3.31-.2-.25-.47-.12-1.24.46-1.41,2.24-.18,4.61-.42,6.73-1.13,5.56-1.86,8.9-8.71,12.47-12.99l.07-.45c-.59-1.45-1.12-2.91-.39-4.41,1.5-3.09,9.47-6.16,12.72-5.67.62.09,1.3.6,1.93.76,3.08.78,5.24.32,7.81,2.95,1.28,1.3,2.51,4.19,3.83,5.06,2.46,1.63,9.78,1.25,9.9,4.99.12,3.76-3.31,8.41-6.76,9.75-2.61,1.01-4.78-.03-7.39.27-1.88.21-3.54,2.02-4.62,3.45-.41.55-1.23,2.22-1.54,2.49Z"/>
    <path d="M-37.03,5.74h-6.31c-.56,0-1.49-.65-1.67-1.23-.2-.67-.22-5.94-.05-6.69.12-.54,1-1.39,1.51-1.39h6.52v-6.52c0-.44.84-1.45,1.35-1.55.96-.18,5.14-.13,6.2,0,.68.08,1.34.43,1.54,1.15l.04,6.59.28.33h6.41c.51,0,1.39.85,1.51,1.39.21.93.17,5.11.05,6.17-.11.98-1.04,1.75-1.97,1.75h-6l-.31.31v6.62c0,.43-.89,1.05-1.36,1.13-.89.14-5.99.12-6.66-.15-.5-.2-1.09-1.11-1.09-1.6v-6.31ZM-43.44,3.67c0,.41,6.88.09,7.54.21.23.04.73.36.73.51v7.24l.31.31h4.55c.12,0,.72.15.72-.31v-7.24s.48-.52.52-.52h7.24l.31-.31V-1.4l-.31-.31h-7.24s-.52-.48-.52-.52v-7.24s-.48-.52-.52-.52h-4.76l-.31.31V-2.23s-.32.36-.42.41c-1.14.53-5.52-.2-7.13.11-.23.04-.73.36-.73.51V3.67Z"/>
    <path d="M-52.33-2.53c.05,4.68,1.53,9.22.35,13.9-.2.78-1.06,3.61-2.24,2.14-.56-.7.18-1.49.33-2.19,1.1-4.87,0-9.22-.44-14.08.47-2.49,5.05-1.04,6.1-3.63.74-1.83-.59-1.98-1.51-3.2-.76-1.01-1.39-2.55-2.26-3.42s-2.2-1.13-3.14-1.94l.32-3.93c-1.63.17-3.06,1.43-4.13,2.59-.38.41-.61,1.01-1.03,1.45-1.6,1.69-2.91,1.75-3.89,4.38-.75,2.01-.05,5.67-2.65,6.03-1.67.23-3.05.09-4.88.49-.95.21-3.14,1.15-3.81,1.18-.3.01-.52-.05-.72-.29-1.09-1.4,2.05-2.12,3.03-2.38,2.07-.56,4.18-.68,6.31-.93.63-2.81.55-4.92,2.48-7.25.87-1.04,2-1.61,2.82-2.46.48-.5.98-1.54,1.52-2.1.99-1.02,4.04-2.89,5.45-2.74,1.81.19,1.27,3.71,1.26,4.91,2.66,1.06,3.29,3.4,4.78,5.36,1.11,1.46,2.36,1.43,2.13,3.61-.33,3.16-3.49,4.11-6.17,4.48Z"/>
  </g>
  <g>
    <path d="M65.49,13.5v7.48c-.32.15-.52.54-.8.72-1.07.66-2.69.26-3.92.36-.66.06-.25.69-.33,1.22-.15.98-1.12,2.54-2.14,2.8-1.48.38-3.74.22-5.33.21-.37,0-.57-.18-.63.38-.18,2.88.25,6.08,0,8.93-.06.71-.75,1.72-1.34,2.11-1.31.86-3.17.3-4.64.47-.19.02-.32.08-.37.28v20.19c.16.34.4.17.67.17,2.24,0,4.97-.19,7.14,0,.46.04,1.14.29,1.43.65.07.09.36.59.38.69.06.34.06,1.97,0,2.31-.01.07-.36.73-.41.78-.03.03-.6.36-.64.37-.37.08-.83-.15-1.07.23-.3.47-.3.93-.79,1.41-.26.26-.76.33-.87.69h-2.22c-.04-.31-.43-.39-.66-.57-.12-.1-.33-.29-.42-.41-.33-.43-.42-1.25-.99-1.33h-17.13c-.54-.07-.4.35-.55.69-.29.67-.92,1.05-1.47,1.45-.05.04-.07.15-.1.17-.19.11-1.65-.06-1.98.02-.63-.5-1.26-.82-1.63-1.59-.13-.28-.11-.68-.46-.73-.62-.1-.92.13-1.48-.42-.22-.21-.3-.51-.33-.8-.04-.47-.06-2.22.08-2.6.21-.57,1.17-.95,1.73-1,2.29-.2,4.94.09,7.26.05.12,0,.24-.06.33-.13l.05-7.8c-.13-.38-.48-.21-.74-.21-2.72,0-5.43,0-8.15,0-.32-.05-.5-.04-.65-.36s-.03-.4-.03-.68c0-.55,0-1.1-.02-1.66-.08-.28-.83-.39-.88-1.02-.12-1.25.08-2.7.02-3.97.11-.6.82-.44.88-.96v-13.91c-.1-.36-.77-.37-.88-.92-.14-.7.12-1.79-.01-2.48-.03-.14-.15-.23-.28-.26-.18-.04-1.69-.04-1.8.02-.17.08-.21.6-.31.82-.32.76-1.32,1.64-2.16,1.71s-1.17.02-1.84-.42c-.71-.47-.7-.66-1.11-1.33-.05-.08-.17-.08-.2-.21-.06-.21-.06-1.51.05-1.65.05-.06.52-.4.6-.44.42-.2.8-.03,1.22-.39.14-.12.28-.52.3-.71.1-.82-.1-1.85,0-2.68.11-.97,1.71-.46,2.22-.08.32.24.8.88.96,1.24.26.59.01,1.88.09,2.58.02.14.05.28.19.34.17.08,1.55.07,1.77.02.45-.11.37-.51.62-.69.34-.24,1.58-.23,1.97-.12s.48.35.61.7v3.97c-.02.18-.26.42-.4.54-.21.17-.49.15-.48.47l.05,14.1c.37.22.76.41.83.89.17,1.15-.12,2.68,0,3.87-.04.33-.68.69-.88.96l.02,1.51.24.12h7.97s.16-.09.16-.09l.04-11.18c-.04-.12-.2-.2-.32-.22-1.05-.17-3.04.27-3.94-.17-1.26-.61-1.72-1.42-1.98-2.78v-15.76c.17-.62.22-1.44.62-1.93.61-.75,1.35-1.16,2.32-1.25h20.83c1.41.03,2.82,1.3,2.94,2.71.16,1.82-.17,3.9,0,5.72.02.19.03.39.27.39h5.06c1.06-.14,1.66-1.42,1.75-2.37.02-.27,0-.63-.31-.67-1.33-.18-3.61.49-4.52-.77-.27-.38-.42-.81-.45-1.27-.1-1.53-.1-3.83,0-5.36.04-.65.22-1.26.75-1.69.21-.17.53-.23.67-.48l8.44-.06.14.03c.14.23.42.28.59.42.26.21.44.56.77.63ZM55.78,13.62c-.21.16-.51.3-.52.61.13,1.9-.17,4.03,0,5.89.03.35.21.57.52.73.41.21.61.13,1,.13,2.08,0,4.17-.01,6.25,0,.17,0,.33.07.47.06.24-.02.93-.42.95-.72-.02-1.84.16-3.84.04-5.67-.03-.53-.09-.92-.69-1.04h-8.02ZM28.36,17.37c-.76.23-1.58.87-1.59,1.74-.07,5.25.06,10.56.06,15.82,0,.4-.13.82.15,1.21.03.04.61.63.65.66.21.15.75.34,1.01.36l21.09-.03c.42-.29.8-.29,1.13-.72.4-.53.35-.71.35-1.31.04-5.21.03-10.44,0-15.65,0-.34.11-.46-.05-.83-.31-.72-.92-1.18-1.7-1.28l-21.11.02ZM17.18,19.98c-.29.13-.1.39-.1.61.02.85,0,2.35-.82,2.88-.08.05-.68.38-.73.4-.53.14-.82-.07-.71.77.09.7.99,1.43,1.69,1.41.93-.04,1.59-.96,1.64-1.81.05-.76.09-2.76-.07-3.44-.05-.22-.61-.9-.9-.81ZM22.59,23.55c-.12.04-.15.21-.16.32-.1.85.07,1.87,0,2.74.05.28.83.4.89-.12s.07-2.19,0-2.67c-.05-.33-.46-.35-.73-.26ZM33.18,38.19c-.21.05-.29.23-.28.43l.05,20.07c.14.3.29.13.52.13.41,0,.84-.02,1.24.05.4-.12.22-.46.21-.72-.02-2.01,0-4.03.03-6.04.19-.6.46-.77,1.07-.83.68-.07,1.97-.13,2.11.75l.03,6.63c.14.35.29.17.54.17.35,0,.99.19,1.05-.26.13-1.94-.18-4.11,0-6.01.03-.35.31-.98.64-1.14.43-.22,2.11-.23,2.46.13.17.18.29.72.29.96,0,.19-.06.34-.06.52,0,1.88-.02,3.75.03,5.63.14.33.79.18,1.14.17.23,0,.39.12.62-.03.28-.18.12-.4.12-.65,0-5.2-.02-10.41.02-15.61-.04-.15-.12-.26-.29-.25-1.33-.12-2.99.17-4.28,0-.84-.11-.63-.9,0-1.12,1.29,0,2.58,0,3.87,0,.26,0,.63.17.68-.26v-2.45s-.2-.21-.2-.21l-11.6-.03ZM23.25,46.73c.19-.19.01-2.56.07-2.99-.07-.36-.81-.51-.89,0-.07.47-.07,2.31,0,2.79.06.39.53.25.81.2ZM36.27,52.35c-.45.1-.28.51-.28.79,0,1.65,0,3.3,0,4.94,0,.28-.18.55.16.73.16.08.79.09.91-.07l.05-6.13c-.06-.29-.61-.31-.85-.26ZM41.21,52.35c-.15.03-.29.15-.28.31.01,1.83,0,3.65,0,5.48,0,.25-.14.51.16.67.08.04.53.08.63.06.18-.03.28-.21.28-.37l-.06-6.01c-.12-.17-.54-.17-.74-.13ZM23.84,60.02c-.13.04-.25.11-.28.26-.07.38,0,1.22,0,1.67,0,.35-.16.59.38.68l30.19-.03c.18-.08.34-.17.42-.35.09-.23.09-1.5.03-1.76-.05-.22-.23-.48-.48-.47h-30.27ZM25.74,63.65c-.27.19.03.34.13.5.2.34.28.5.68.69.27.13,1.01.17,1.28.06.12-.05.88-.69.97-.82.07-.11.17-.29.04-.39l-3.09-.05ZM49.36,63.65c-.49.35.29.96.63,1.13.95.47,1.92-.03,2.42-.88.01-.14-.08-.25-.21-.26h-2.84Z"/>
    <path d="M29.07,18.68l19.62-.02c.82.07,1.22.5,1.4,1.28l-.03,9.85c-.23.55-.74,1.07-1.37,1.13h-19.34c-.69-.08-1.38-.63-1.45-1.34.18-3.11-.24-6.5,0-9.58.06-.72.45-1.19,1.18-1.32ZM48.84,29.73c.14-.26.05-.43.06-.68.05-3.06,0-6.14-.03-9.19-.08-.15-.48-.16-.65-.18h-18.39c-.31.05-.67,0-.81.32l-.05,9.36c-.05.1.25.38.27.38h19.6Z"/>
    <path d="M30.68,32.24c.74-.15,1.48.3,1.85.92.31.52.32.91.04,1.45-.35.67-.85.91-1.55,1.12-.42-.18-.93-.3-1.28-.62-.51-.48-.53-1.31-.34-1.95.1-.35.93-.85,1.28-.92ZM30.74,33.31c-.56.13-.51.97.03,1.19.93.39,1.3-1.5-.03-1.19Z"/>
    <path d="M36.39,32.24c.65-.1,1.33.1,1.71.64.58.84.38,1.99-.51,2.52-.06.03-.71.31-.75.31-.42.04-1.42-.59-1.62-.97s-.19-1.47.06-1.83c.16-.23.82-.63,1.11-.68ZM36.57,33.31c-.75.12-.54,1.43.33,1.22.6-.14.67-1.38-.33-1.22Z"/>
  </g>
</svg>