<?xml version="1.0" encoding="UTF-8"?>
<svg id="Layer_1" xmlns="http://www.w3.org/2000/svg" version="1.1" viewBox="0 0 75 75">
  <!-- Generator: Adobe Illustrator 29.7.1, SVG Export Plug-In . SVG Version: 2.1.1 Build 8)  -->
  <defs>
    <style>
      .st0 {
        fill: #fff;
      }
    </style>
  </defs>
  <path class="st0" d="M24.51,34.72l.25,2.24-1.83.41c-2.48-9.71,4.58-19.27,14.39-20.43,11.36-1.34,21.04,9.26,18.23,20.43l-1.83-.41.11-2.24h-5.44c-.21.9-.44,5.41-.98,5.85-.39.31-1.34-.13-1.81-.22l.67-5.63h-5.97v3.98h-2.12v-3.98h-5.84l.13,3.31-1.91.28-.47-3.59h-5.57ZM38.17,19.19c-2.29.76-3.54,3.25-4.37,5.36.11.48,3.76,1.17,4.37,1.01v-6.37ZM40.29,19.19v6.5l4.39-1.01c-.82-2.18-2.04-4.67-4.39-5.49ZM48.52,22.24l-3.71-2.25c-.13.15,1.68,3.43,1.85,3.52.19.1.2.03.34-.07.47-.33.95-1.02,1.52-1.2ZM33.66,20.12c-.27-.21-3.12,1.54-3.45,1.92-.1.12-.17.15-.13.33l1.65,1.2,1.93-3.45ZM24.64,32.59h5.24c.08,0,.34-.33.32-.47l.9-6.21c-.06-.48-2.2-1.79-2.68-2.17-2.25,2.35-3.69,5.59-3.78,8.86ZM53.83,32.59c-.09-3.3-1.57-6.49-3.8-8.88-.46.42-2.61,1.75-2.68,2.21l1.04,6.67h5.44ZM38.17,32.59v-4.58c0-.12-.34-.28-.47-.32-1.32-.44-3.29-.51-4.7-.8-.31,1.89-.76,3.77-.67,5.7h5.84ZM40.29,27.82v4.78h5.84c.08-1.93-.38-3.81-.66-5.7l-5.17.93Z"/>
  <path class="st0" d="M41.49,45.33c.53-.16,1.04-.18,1.58-.34,2.15-.63,5.86-2.12,7.84-3.18,2.32-1.23,4.81-3.59,7.16-.53,3.12,4.07-3.32,7.06-6.14,8.58-3.15,1.69-7.91,4.17-11.34,4.84-4.32.85-8.83,1.15-13.15,2.11l-1.74,1.58,1.85,1.59-4.73,4.57c-.18.03-1.44-1.18-1.36-1.49.11-.41,3-2.52,2.84-2.88l-12.01-12.01c-.1-.09-.16-.05-.26,0-.46.24-2.65,2.86-2.85,2.86l-1.39-1.52,4.38-4.39c.36-.18,1.07,1.02,1.32,1.32l.28.03c3.04-2.34,5.07-6.3,9.04-7.16,3.35-.72,4.64-.01,7.67.78,2.8.73,8.19-.76,10.21,1.2,1.12,1.09,1.03,2.6.81,4.03ZM31.14,47.72v-1.92c.12-.19.26-.18.46-.21,1.88-.22,5.04.38,6.71-.06,1.51-.4,1.88-2.93-.2-3.13-2.31-.21-5.02.25-7.3,0-1.11-.12-2.48-1.04-3.86-1.18-3.36-.34-4.88.07-7.21,2.31-1.47,1.41-2.82,2.94-4.38,4.24l8.95,9.09,2.29-2.09c4.52-.98,9.37-1.23,13.86-2.19,3.27-.7,9.75-4.05,12.75-5.83.77-.46,2.59-1.56,3.13-2.17,1-1.12.08-2.96-1.51-2.7-.37.06-2.33,1.43-2.9,1.74-4.72,2.53-9.11,3.92-14.48,4.1-2.1.07-4.21-.06-6.31,0Z"/>
</svg>