<?xml version="1.0" encoding="UTF-8"?>
<svg id="Layer_1" xmlns="http://www.w3.org/2000/svg" version="1.1" viewBox="0 0 75 75">
  <!-- Generator: Adobe Illustrator 29.7.1, SVG Export Plug-In . SVG Version: 2.1.1 Build 8)  -->
  <defs>
    <style>
      .st0 {
        fill: #fff;
      }
    </style>
  </defs>
  <g>
    <path class="st0" d="M-146.5,43.02l.25,2.24-1.83.41c-2.48-9.71,4.58-19.27,14.39-20.43,11.36-1.34,21.04,9.26,18.23,20.43l-1.83-.41.11-2.24h-5.44c-.21.9-.44,5.41-.98,5.85-.39.31-1.34-.13-1.81-.22l.67-5.63h-5.97v3.98h-2.12v-3.98h-5.84l.13,3.31-1.91.28-.47-3.59h-5.57ZM-132.83,27.5c-2.29.76-3.54,3.25-4.37,5.36.11.48,3.76,1.17,4.37,1.01v-6.37ZM-130.71,27.5v6.5l4.39-1.01c-.82-2.18-2.04-4.67-4.39-5.49ZM-122.48,30.55l-3.71-2.25c-.13.15,1.68,3.43,1.85,3.52.19.1.2.03.34-.07.47-.33.95-1.02,1.52-1.2ZM-137.34,28.43c-.27-.21-3.12,1.54-3.45,1.92-.1.12-.17.15-.13.33l1.65,1.2,1.93-3.45ZM-146.37,40.9h5.24c.08,0,.34-.33.32-.47l.9-6.21c-.06-.48-2.2-1.79-2.68-2.17-2.25,2.35-3.69,5.59-3.78,8.86ZM-117.18,40.9c-.09-3.3-1.57-6.49-3.8-8.88-.46.42-2.61,1.75-2.68,2.21l1.04,6.67h5.44ZM-132.83,40.9v-4.58c0-.12-.34-.28-.47-.32-1.32-.44-3.29-.51-4.7-.8-.31,1.89-.76,3.77-.67,5.7h5.84ZM-130.71,36.12v4.78h5.84c.08-1.93-.38-3.81-.66-5.7l-5.17.93Z"/>
    <path class="st0" d="M-129.51,53.64c.53-.16,1.04-.18,1.58-.34,2.15-.63,5.86-2.12,7.84-3.18,2.32-1.23,4.81-3.59,7.16-.53,3.12,4.07-3.32,7.06-6.14,8.58-3.15,1.69-7.91,4.17-11.34,4.84-4.32.85-8.83,1.15-13.15,2.11l-1.74,1.58,1.85,1.59-4.73,4.57c-.18.03-1.44-1.18-1.36-1.49.11-.41,3-2.52,2.84-2.88l-12.01-12.01c-.1-.09-.16-.05-.26,0-.46.24-2.65,2.86-2.85,2.86l-1.39-1.52,4.38-4.39c.36-.18,1.07,1.02,1.32,1.32l.28.03c3.04-2.34,5.07-6.3,9.04-7.16,3.35-.72,4.64-.01,7.67.78,2.8.73,8.19-.76,10.21,1.2,1.12,1.09,1.03,2.6.81,4.03ZM-139.86,56.03v-1.92c.12-.19.26-.18.46-.21,1.88-.22,5.04.38,6.71-.06,1.51-.4,1.88-2.93-.2-3.13-2.31-.21-5.02.25-7.3,0-1.11-.12-2.48-1.04-3.86-1.18-3.36-.34-4.88.07-7.21,2.31-1.47,1.41-2.82,2.94-4.38,4.24l8.95,9.09,2.29-2.09c4.52-.98,9.37-1.23,13.86-2.19,3.27-.7,9.75-4.05,12.75-5.83.77-.46,2.59-1.56,3.13-2.17,1-1.12.08-2.96-1.51-2.7-.37.06-2.33,1.43-2.9,1.74-4.72,2.53-9.11,3.92-14.48,4.1-2.1.07-4.21-.06-6.31,0Z"/>
  </g>
  <g>
    <path class="st0" d="M21.41,41.52c1.01-.69,2.2-1.3,3.46-.9l14.71,5.12c4.7,1.98,3.59,8.06-1.39,7.89l-9.01-2.82c-.61-.46-.36-1.38.46-1.32l8.72,2.75c3.44.08,3.73-4.2.62-5.23l-14.66-5.03c-1.04-.2-2.07.73-2.89,1.26v10.76c.57.15,1.15.29,1.72.48,5.03,1.68,9.93,3.78,14.97,5.44.58.08,1.02-.39,1.44-.72,5.56-4.39,10.85-9.18,16.3-13.7,1.5-2.42-1.32-4.91-3.42-2.85l-8.44,7.25c.02-.55,0-1.1-.19-1.62l8.09-7.1c3.78-2.86,8.17,2.33,4.15,6.02-5.04,4.62-10.88,8.7-15.98,13.3-.73.64-1.51.86-2.47.67-4.94-1.66-9.75-3.7-14.69-5.36-.49-.16-.98-.31-1.48-.43v1.98c0,.4-.7,1.07-1.12,1.11-1.66-.14-3.65.2-5.26,0-.56-.07-.81-.74-.43-1.15.04-.04.34-.22.36-.22h5.01v-17.27s.13-.08-.04-.18h-4.98c-.27,0-.56-.47-.54-.75.04-.69.82-.67,1.33-.7.94-.04,3.92-.14,4.67.09.41.13.99.73.99,1.17v2.06Z"/>
    <path class="st0" d="M40.92,16.61c.89,0,1.56.62,2.13,1.22.49.51,1.05,1.5,1.84,1.49,1.31-.03,2.82-1.04,4.07-.11.68.51.84,1.36.94,2.16.11.87-.11,1.89.76,2.42,1.19.73,3.29.94,3.29,2.77,0,1.41-1.54,2.55-1.59,3.61-.04.82,1.4,2.35,1.51,3.38.23,2.16-2.09,2.28-3.37,3.12-.49.32-.51.67-.59,1.21-.29,2.04-.07,3.97-2.92,3.62-1.13-.14-2.18-.86-3.15.04s-1.73,2.61-3.46,2.17c-1.34-.34-2.22-2.43-3.15-2.62-.71-.14-2.17.49-3.01.49-1.71.02-2.08-1.3-2.27-2.71-.1-.76.11-1.68-.63-2.19-1.15-.79-3.42-.99-3.42-2.86,0-1.22,1.53-2.68,1.53-3.61,0-1.46-2.32-2.92-1.18-4.7.73-1.14,2.75-1.26,3.37-2.04.43-.54.33-2.18.52-2.94.35-1.42,1.26-1.8,2.65-1.66,1.07.1,2.21.85,3.14.02s1.59-2.3,3-2.3ZM29.44,34.21c.39.43,1.74.82,2.33,1.17.98.57,1.28,1.19,1.46,2.29.07.47.07,2.32.56,2.47.98.3,2.69-.66,3.98-.3s2.38,2.59,3.15,2.59c.65,0,1.56-1.44,2.05-1.88,1.59-1.42,2.65-.47,4.37-.33.53.04.81.06,1-.5.41-1.18-.02-2.55.87-3.67.62-.79,3.15-1.47,3.32-2.02s-1.1-2.26-1.32-2.94c-.63-1.92.81-2.7,1.3-4.22.15-.46-.03-.62-.4-.86-.76-.5-1.77-.65-2.54-1.29-1.25-1.04-.79-2.49-1.15-3.82-.17-.64-.37-.68-1-.64-1.12.08-2.21.69-3.38.33-1.11-.34-2.39-2.58-3.12-2.58-.68,0-2.04,2.18-3.12,2.51-1.21.37-3.44-.61-4.07-.27-.43.23-.47,2.53-.64,3.13-.21.75-.65,1.26-1.32,1.64-.5.29-2.38.89-2.49,1.41-.14.68,1.51,2.54,1.51,3.73,0,1.29-1.63,3-1.52,3.74.01.1.1.23.17.31Z"/>
    <path class="st0" d="M40,20.85c6.9-.58,12.18,6.08,9.75,12.64-2.79,7.54-13.19,8.34-17.08,1.28-3.24-5.88.64-13.36,7.33-13.92ZM40.22,22.22c-5.74.47-9.09,6.77-6.34,11.85,2.78,5.15,10.09,5.6,13.53.88,4.06-5.56-.34-13.3-7.18-12.74Z"/>
    <path class="st0" d="M39.7,33.85c-.36.33-.75.23-1.09-.05-.61-.5-2.07-1.95-2.56-2.56-.1-.12-.32-.39-.35-.52-.14-.61.51-1,1.04-.75l2.45,2.38,5.77-5.77c.65-.58,1.55.17,1.05.9l-6.3,6.36Z"/>
  </g>
</svg>